<?xml version="1.0" encoding="utf-8"?>
<!-- Generator: Adobe Illustrator 22.1.0, SVG Export Plug-In . SVG Version: 6.00 Build 0)  -->
<svg version="1.1" id="Слой_1" xmlns="http://www.w3.org/2000/svg" xmlns:xlink="http://www.w3.org/1999/xlink" x="0px" y="0px"
	 viewBox="0 0 176 99.6" style="enable-background:new 0 0 176 99.6;" xml:space="preserve">
<style type="text/css">
	.st0{clip-path:url(#SVGID_2_);fill-rule:evenodd;clip-rule:evenodd;fill:#343A88;}
	.st1{clip-path:url(#SVGID_2_);fill:#343A88;}
	.st2{clip-path:url(#SVGID_2_);fill:#AED036;}
</style>
<g>
	<defs>
		<rect id="SVGID_1_" y="0" width="176" height="99.6"/>
	</defs>
	<clipPath id="SVGID_2_">
		<use xlink:href="#SVGID_1_"  style="overflow:visible;"/>
	</clipPath>
	<path class="st0" d="M154.5,69.1c-6.3,11-14,19.6-20.6,23c3.4-5.8,4.1-14.2,3.7-21.2c-13.5,7-30.9,11.1-49.8,11.1
		c-43.1,0-78-21.7-78-48.4c0-13,8.4-25,22-33.7C12.4,9.2,0,23.6,0,39.8c0,27.8,36.3,50.3,81.1,50.3c19.7,0,37.7-4.3,51.8-11.6
		c0.4,7.3-2.8,15.1-6.3,21.1c13.5-4.2,24.3-15.2,29.8-27.7C156.3,71.9,154.5,69,154.5,69.1"/>
	<path class="st1" d="M33.6,10.5h14.8c5.6,0,8.9,1.1,8.9,7.5c0,3.7-0.7,6.1-4.4,6.8v0.3c4.2,0.3,4.9,2.9,4.9,6.6
		c0,7.2-3.2,8.2-9.2,8.2h-15V10.5z M41.1,22.2h5.4c2.6,0,3.3-0.5,3.3-2.8c0-1.8-0.3-2.4-2.4-2.5h-6.3V22.2z M41.1,33.4h5.7
		c2.4,0,3.5-0.6,3.5-3c0-2.4-0.9-2.8-3.3-2.8h-5.8V33.4z"/>
	<polygon class="st1" points="66.8,33 78.6,33 78.6,39.8 59.3,39.8 59.3,10.5 66.8,10.5 	"/>
	<path class="st1" d="M79,29.3V21c0-9,5.4-10.7,13.1-10.7S105.1,12,105.1,21v8.3c0,9-5.4,10.7-13.1,10.7S79,38.3,79,29.3 M97.3,28.5
		v-6.6c0-4.3-1.4-4.8-5.3-4.8c-3.9,0-5.2,0.4-5.3,4.8v6.6c0.1,4.4,1.4,4.8,5.3,4.8C95.9,33.3,97.3,32.8,97.3,28.5"/>
	<path class="st1" d="M124.8,19.6c-0.2-3-2.6-2.9-4.9-2.9c-5.4,0-5.6,1.7-5.6,6.4v4.8c0,5.2,1.7,5.7,5.6,5.7c3.8,0,4.9-0.9,4.9-5
		h-5.2v-5.4h12.8v5.1c0,9.9-2.4,11.7-12.5,11.7c-8.9,0-13.4-1.6-13.4-11v-7.6c0-9.7,5.1-11.1,13.4-11.1c7.3,0,12.5,0,12.5,9.3H124.8
		z"/>
	<path class="st1" d="M150.9,45l-1.4-2.4c-0.2-0.4-0.7-0.5-1-0.3l-0.2,0.1c-0.3,0.2-0.5,0.7-0.3,1l1.4,2.4c-0.8,0.4-1.7,0.6-2.6,0.6
		c-3.5,0-6.4-2.9-6.4-6.4c0-3.5,2.9-6.4,6.4-6.4s6.4,2.9,6.4,6.4C153.2,42,152.3,43.8,150.9,45"/>
	<path class="st2" d="M47.3,52.5V53c0,1.8,0,3.4-1.5,4.7c-1.4,1.2-3.2,1.2-5.1,1.2c-4.3,0-7.5-0.2-7.5-6.3v-4.3
		c0-5.5,2.8-6.3,7.5-6.3c4.4,0,6.4,0.5,6.5,5.4v0.6h-4.4v-0.6c-0.1-1.5-1.1-1.6-2.6-1.6c-2.4,0-2.7,0.8-2.7,3.1v2.6
		c0,2.5,0.1,3.4,2.7,3.4c1.8,0,2.6-0.1,2.6-2.1v-0.5H47.3z"/>
	<path class="st2" d="M53,55.9l-0.8,2.8h-4.4l4.8-16.5H59l4.8,16.5h-4.3l-0.8-2.8H53z M55.9,45.6L55.9,45.6l-2,7.2h4L55.9,45.6z"/>
	<polygon class="st2" points="70.7,58.8 66.4,58.8 66.4,46.1 62.4,46.1 62.4,42.3 75,42.3 75,46.1 70.7,46.1 	"/>
	<path class="st2" d="M78.7,55.9L78,58.8h-4.4l4.8-16.5h6.5l4.8,16.5h-4.3l-0.8-2.8H78.7z M81.6,45.6L81.6,45.6l-2,7.2h4L81.6,45.6z
		"/>
	<polygon class="st2" points="94.9,55 101.5,55 101.5,58.8 90.6,58.8 90.6,42.3 94.9,42.3 	"/>
	<path class="st2" d="M102.1,52.9v-4.7c0-5.1,3.1-6.1,7.4-6.1c4.3,0,7.4,1,7.4,6.1v4.7c0,5.1-3.1,6.1-7.4,6.1
		C105.1,58.9,102.1,58,102.1,52.9 M112.4,52.4v-3.7c0-2.4-0.8-2.7-3-2.7s-2.9,0.2-3,2.7v3.7c0.1,2.5,0.8,2.7,3,2.7
		S112.4,54.8,112.4,52.4"/>
	<path class="st2" d="M128.5,47.4c-0.1-1.7-1.5-1.7-2.7-1.7c-3.1,0-3.1,1-3.2,3.6v2.7c0,2.9,1,3.2,3.2,3.2c2.2,0,2.7-0.5,2.7-2.8
		h-2.9v-3.1h7.2v2.9c0,5.6-1.4,6.6-7.1,6.6c-5,0-7.6-0.9-7.6-6.2v-4.3c0-5.5,2.9-6.3,7.6-6.3c4.1,0,7.1,0,7.1,5.3H128.5z"/>
	<path class="st2" d="M153.4,49.3l-1.8-3.2l10,1.8L176,70.7l-14.6,9.2L147,57.1l3-10.2l1.9,3.3c-0.1,0.4-0.1,0.8,0.1,1.2
		c0.4,0.7,1.3,0.8,1.9,0.4c0.7-0.4,0.8-1.3,0.4-1.9C154.2,49.6,153.8,49.4,153.4,49.3"/>
</g>
</svg>
